<svg width="22" height="18" viewBox="0 0 22 18" fill="none" xmlns="http://www.w3.org/2000/svg">
<path d="M21 9.72727V8.75758C21 5.10085 21 3.272 19.828 2.13648C18.656 1.00097 16.771 1 13 1H9C5.229 1 3.343 1 2.172 2.13648C1.001 3.27297 1 5.10085 1 8.75758C1 12.4143 1 14.2432 2.172 15.3787C3.344 16.5142 5.229 16.5152 9 16.5152H12M9 12.6364H5M1 6.81818H21" stroke="black" stroke-width="1.5" stroke-linecap="round"/>
<path d="M17 16.5152C18.6569 16.5152 20 15.2127 20 13.6061C20 11.9994 18.6569 10.697 17 10.697C15.3431 10.697 14 11.9994 14 13.6061C14 15.2127 15.3431 16.5152 17 16.5152Z" stroke="black" stroke-width="1.5"/>
<path d="M19.5 16.0303L20.5 17" stroke="black" stroke-width="1.5" stroke-linecap="round"/>
</svg>
