<svg width="22" height="20" viewBox="0 0 22 20" fill="none" xmlns="http://www.w3.org/2000/svg">
<path d="M12 13C9.708 19 3.292 13 1 19M14.5 13H16.001C18.358 13 19.537 13 20.269 12.268C21.001 11.536 21.001 10.357 21.001 8V6C21.001 3.643 21.001 2.464 20.269 1.732C19.537 1 18.36 1 16.001 1H12.001C9.644 1 8.466 1 7.734 1.732C7.114 2.352 7.018 3.293 7.004 5" stroke="black" stroke-width="1.5" stroke-linecap="round" stroke-linejoin="round"/>
<path d="M6.5 12.5C7.88071 12.5 9 11.3807 9 10C9 8.61929 7.88071 7.5 6.5 7.5C5.11929 7.5 4 8.61929 4 10C4 11.3807 5.11929 12.5 6.5 12.5Z" stroke="black" stroke-width="1.5" stroke-linecap="round" stroke-linejoin="round"/>
<path d="M11 5H17M17 9H14" stroke="black" stroke-width="1.5" stroke-linecap="round" stroke-linejoin="round"/>
</svg>
