<svg width="22" height="22" viewBox="0 0 22 22" fill="none" xmlns="http://www.w3.org/2000/svg">
<path d="M11 20C12.1819 20 13.3522 19.7672 14.4442 19.3149C15.5361 18.8626 16.5282 18.1997 17.364 17.364C18.1997 16.5282 18.8626 15.5361 19.3149 14.4442C19.7672 13.3522 20 12.1819 20 11C20 9.8181 19.7672 8.64778 19.3149 7.55585C18.8626 6.46392 18.1997 5.47177 17.364 4.63604C16.5282 3.80031 15.5361 3.13738 14.4442 2.68508C13.3522 2.23279 12.1819 2 11 2C8.61305 2 6.32387 2.94821 4.63604 4.63604C2.94821 6.32387 2 8.61305 2 11C2 13.3869 2.94821 15.6761 4.63604 17.364C6.32387 19.0518 8.61305 20 11 20ZM22 11C22 17.075 17.075 22 11 22C4.925 22 0 17.075 0 11C0 4.925 4.925 0 11 0C17.075 0 22 4.925 22 11ZM8.525 8.526C7.86859 9.18241 7.49982 10.0727 7.49982 11.001C7.49982 11.9293 7.86859 12.8196 8.525 13.476C9.18141 14.1324 10.0717 14.5012 11 14.5012C11.9283 14.5012 12.8186 14.1324 13.475 13.476L14.182 12.768L15.596 14.183L14.889 14.89C14.1198 15.6592 13.1398 16.1831 12.0729 16.3953C11.006 16.6075 9.90013 16.4986 8.89512 16.0824C7.89012 15.6661 7.03112 14.9611 6.42676 14.0567C5.8224 13.1522 5.49983 12.0888 5.49983 11.001C5.49983 9.91319 5.8224 8.84981 6.42676 7.94534C7.03112 7.04086 7.89012 6.33591 8.89512 5.91964C9.90013 5.50336 11.006 5.39446 12.0729 5.6067C13.1398 5.81894 14.1198 6.34279 14.889 7.112L15.596 7.819L14.182 9.233L13.475 8.526C13.15 8.20096 12.7641 7.94312 12.3395 7.7672C11.9148 7.59129 11.4597 7.50075 11 7.50075C10.5403 7.50075 10.0852 7.59129 9.66053 7.7672C9.23586 7.94312 8.85001 8.20096 8.525 8.526Z" fill="black"/>
</svg>
