<svg width="14" height="14" viewBox="0 0 14 14" fill="none" xmlns="http://www.w3.org/2000/svg">
<path d="M2.8745 0.48859C2.87236 0.394658 2.84379 0.30323 2.79207 0.224787C2.74036 0.146344 2.66758 0.0840599 2.5821 0.0450742C2.49661 0.00608842 2.40187 -0.00802138 2.30873 0.00436206C2.21559 0.0167455 2.12783 0.055121 2.0555 0.11509C1.196 0.82859 0.6745 1.41859 0.3715 1.97009C0.0595 2.53859 0 3.03209 0 3.50009C0 4.03052 0.210714 4.53923 0.585786 4.9143C0.960859 5.28938 1.46957 5.50009 2 5.50009C2.53043 5.50009 3.03914 5.28938 3.41421 4.9143C3.78929 4.53923 4 4.03052 4 3.50009C4 2.86009 3.687 2.38509 3.442 2.01309L3.37 1.90309C3.11 1.50009 2.8885 1.10809 2.8745 0.48859ZM0.000500083 7.50359C0.000500083 6.94559 0.0445 6.23959 0.2925 5.65559C0.778007 6.04124 1.37996 6.25083 2 6.25009C2.646 6.25009 3.24 6.02709 3.709 5.65459C3.9565 6.23959 4 6.94559 4 7.50309C4 8.42509 3.856 9.95709 3.5925 11.2646C3.461 11.9161 3.295 12.5396 3.0895 13.0116C2.988 13.2456 2.8645 13.4711 2.7095 13.6461C2.5575 13.8181 2.321 14.0001 2.0015 14.0001C1.6815 14.0001 1.445 13.8181 1.293 13.6461C1.1385 13.4711 1.015 13.2461 0.913 13.0116C0.7075 12.5401 0.5405 11.9166 0.409 11.2646C0.145 9.95759 0 8.42509 0 7.50309M4.4925 2.34009C4.9878 2.10376 5.53174 1.98721 6.08039 1.99986C6.62904 2.0125 7.16703 2.15399 7.65091 2.41289C8.1348 2.6718 8.55102 3.04086 8.86597 3.49028C9.18093 3.93971 9.38578 4.4569 9.464 5.00009H7.7495C7.15276 5.00009 6.58047 5.23714 6.15851 5.6591C5.73655 6.08106 5.4995 6.65335 5.4995 7.25009V8.96509C5.22297 8.92521 4.95221 8.85235 4.693 8.74809C4.66538 9.09095 4.63054 9.43319 4.5885 9.77459C4.88449 9.87195 5.1898 9.93831 5.4995 9.97259V11.2501C5.4995 11.8468 5.73655 12.4191 6.15851 12.8411C6.58047 13.263 7.15276 13.5001 7.7495 13.5001H11.7495C12.3462 13.5001 12.9185 13.263 13.3405 12.8411C13.7624 12.4191 13.9995 11.8468 13.9995 11.2501V7.25009C13.9995 6.65335 13.7624 6.08106 13.3405 5.6591C12.9185 5.23714 12.3462 5.00009 11.7495 5.00009H10.472C10.3916 4.27972 10.1383 3.58944 9.73381 2.98797C9.32929 2.38651 8.78546 1.89166 8.14859 1.54554C7.51173 1.19942 6.80067 1.01226 6.07593 0.999996C5.35119 0.98773 4.63421 1.15072 3.986 1.47509L3.9995 1.49609L4.0675 1.59859C4.1855 1.77509 4.3525 2.02609 4.4925 2.34009ZM11.7495 6.00009C12.081 6.00009 12.399 6.13179 12.6334 6.36621C12.8678 6.60063 12.9995 6.91857 12.9995 7.25009V11.2501C12.9995 11.5816 12.8678 11.8996 12.6334 12.134C12.399 12.3684 12.081 12.5001 11.7495 12.5001H7.7495C7.41798 12.5001 7.10004 12.3684 6.86562 12.134C6.6312 11.8996 6.4995 11.5816 6.4995 11.2501V9.97259C7.51393 9.85888 8.45961 9.40381 9.18141 8.682C9.90322 7.9602 10.3583 7.01452 10.472 6.00009H11.7495ZM6.4995 8.96509V7.25009C6.4995 6.91857 6.6312 6.60063 6.86562 6.36621C7.10004 6.13179 7.41798 6.00009 7.7495 6.00009H9.4645C9.35669 6.74819 9.00961 7.4413 8.47516 7.97575C7.94071 8.5102 7.2476 8.85728 6.4995 8.96509Z" fill="black"/>
</svg>
