<svg width="13" height="11" viewBox="0 0 13 11" fill="none" xmlns="http://www.w3.org/2000/svg">
<path d="M12.3725 0.000517585V0.567314H10.1116V0H2.76329V0.567314H0.502415V0H0V10.9995H0.502415V10.4332H2.76329V11H10.1111V10.4332H12.372V11H13V0.000517585H12.3725ZM2.76329 9.75512H0.502415V8.13703H2.76329V9.75512ZM2.76329 7.45687H0.502415V5.83982H2.76329V7.45687ZM2.76329 5.1607H0.502415V3.54365H2.76329V5.1607ZM2.76329 2.86349H0.502415V1.2454H2.76329V2.86349ZM4.36348 8.13496V2.526L9.07714 5.33048L4.36348 8.13496ZM12.372 9.75512H10.1111V8.13703H12.372V9.75512ZM12.372 7.45687H10.1111V5.83982H12.372V7.45687ZM12.372 5.1607H10.1111V3.54365H12.372V5.1607ZM12.372 2.86349H10.1111V1.2454H12.372V2.86349Z" fill="black"/>
</svg>
