<svg width="16" height="15" viewBox="0 0 16 15" fill="none" xmlns="http://www.w3.org/2000/svg">
<path d="M14.5813 0H1.42001C0.969207 0 0.60376 0.365448 0.60376 0.81625V13.9775C0.60376 14.4283 0.969207 14.7937 1.42001 14.7937H14.5813C15.0321 14.7937 15.3975 14.4283 15.3975 13.9775V0.81625C15.3975 0.365448 15.0321 0 14.5813 0Z" fill="#3D5A98"/>
<path d="M10.81 14.7925V9.06375H12.7325L13.02 6.83125H10.81V5.40625C10.81 4.76 10.99 4.31875 11.9163 4.31875H13.0988V2.31875C12.5261 2.25918 11.9507 2.23081 11.375 2.23375C9.67251 2.23375 8.50001 3.27125 8.50001 5.185V6.83125H6.57751V9.06375H8.50001V14.7925H10.81Z" fill="white"/>
</svg>
