<svg width="14" height="14" viewBox="0 0 14 14" fill="none" xmlns="http://www.w3.org/2000/svg">
<path fill-rule="evenodd" clip-rule="evenodd" d="M6.94401 2.625C7.16123 2.625 7.36954 2.70397 7.52314 2.84455C7.67673 2.98513 7.76302 3.17579 7.76302 3.37459V6.94764L10.0956 8.22894C10.1889 8.27909 10.2705 8.34567 10.3355 8.42484C10.4006 8.504 10.4479 8.59419 10.4746 8.69018C10.5013 8.78617 10.507 8.88606 10.4913 8.98407C10.4757 9.08209 10.4389 9.17628 10.3832 9.26122C10.3275 9.34615 10.2539 9.42013 10.1668 9.47889C10.0797 9.53765 9.98065 9.58002 9.87552 9.60355C9.77038 9.62708 9.66119 9.6313 9.55425 9.61597C9.44732 9.60064 9.34477 9.56607 9.25253 9.51424L6.52249 8.01506C6.40126 7.94846 6.30094 7.85426 6.23128 7.74164C6.16162 7.62903 6.12501 7.50182 6.125 7.37241V3.37459C6.125 3.17579 6.21129 2.98513 6.36488 2.84455C6.51848 2.70397 6.7268 2.625 6.94401 2.625Z" fill="#F97316"/>
<path fill-rule="evenodd" clip-rule="evenodd" d="M1.49874 7.00017C1.49855 5.85694 1.85464 4.74207 2.51749 3.81058C3.18035 2.87909 4.11703 2.17728 5.19728 1.80275C6.27753 1.42822 7.44765 1.39959 8.54492 1.72083C9.6422 2.04207 10.6121 2.69722 11.3197 3.59517L10.3536 4.56017C10.2836 4.63004 10.2358 4.71912 10.2164 4.81614C10.197 4.91315 10.2069 5.01374 10.2446 5.10517C10.2824 5.1966 10.3465 5.27477 10.4288 5.32977C10.511 5.38478 10.6077 5.41415 10.7067 5.41417H13.4999C13.6326 5.41417 13.7598 5.36149 13.8535 5.26772C13.9473 5.17396 14 5.04678 14 4.91417V2.12017C14.0002 2.02115 13.9709 1.92431 13.916 1.84192C13.8611 1.75953 13.7829 1.69531 13.6914 1.65739C13.5999 1.61947 13.4993 1.60957 13.4021 1.62894C13.305 1.6483 13.2159 1.69607 13.1459 1.76617L12.3858 2.52717C11.3778 1.31382 9.98954 0.476454 8.446 0.150808C6.90247 -0.174838 5.29418 0.030331 3.88185 0.733055C2.46953 1.43578 1.33597 2.59486 0.664942 4.0224C-0.00609113 5.44995 -0.17526 7.06226 0.184858 8.59797C0.544977 10.1337 1.41327 11.5028 2.64898 12.4833C3.8847 13.4638 5.41538 13.9982 6.9929 14C8.57042 14.0018 10.1023 13.4707 11.3402 12.493C12.5781 11.5152 13.4494 10.1481 13.813 8.61317C13.8574 8.41999 13.8236 8.21708 13.7188 8.04879C13.6141 7.8805 13.447 7.76051 13.254 7.71505C13.0611 7.66959 12.8579 7.70236 12.6891 7.80619C12.5202 7.91003 12.3993 8.07648 12.3528 8.26917C12.043 9.58222 11.2613 10.7356 10.1564 11.5099C9.05156 12.2843 7.7006 12.6256 6.36049 12.4689C5.02037 12.3122 3.7846 11.6685 2.88819 10.6602C1.99179 9.65185 1.49729 8.34927 1.49874 7.00017Z" fill="#F97316"/>
</svg>
