<svg width="20" height="20" viewBox="0 0 20 20" fill="none" xmlns="http://www.w3.org/2000/svg">
<path d="M0.02125 10.4175C0.2425 15.7369 4.62687 20 10 20C15.3731 20 19.7575 15.7369 19.9788 10.4175C19.9918 10.384 19.999 10.3485 20 10.3125C20 10.29 19.9919 10.2706 19.9875 10.25C19.9894 10.1662 20 10.0844 20 10C20 4.48625 15.5137 0 10 0C4.48625 0 0 4.48625 0 10C0 10.0844 0.010625 10.1662 0.0125 10.25C0.008125 10.2706 0 10.29 0 10.3125C0 10.35 0.009375 10.3844 0.02125 10.4175ZM15.5756 14.2138C14.7263 13.8615 13.8437 13.5954 12.9412 13.4194C13.04 12.5113 13.0981 11.5681 13.1163 10.6256H16.2288C16.1719 11.9094 15.9437 13.1213 15.5756 14.2138ZM16.8531 10.625H19.3431C19.2325 12.3266 18.6567 13.9651 17.6787 15.3619C17.1929 15.0195 16.6793 14.7184 16.1431 14.4619C16.5463 13.2938 16.7944 11.9975 16.8531 10.625ZM7.74312 13.9287C8.48967 13.8109 9.24422 13.7512 10 13.75C10.765 13.75 11.5206 13.8137 12.2563 13.9287C11.8225 17.2631 10.875 19.375 10 19.375C9.125 19.375 8.1775 17.2631 7.74312 13.9287ZM8.6925 19.165C6.97313 18.6137 5.51875 16.9956 4.64125 14.8C5.4452 14.4643 6.28057 14.2095 7.135 14.0394C7.42188 16.2244 7.94625 18.1281 8.6925 19.165ZM7.67125 6.69312C8.44171 6.8132 9.22024 6.874 10 6.875C10.7798 6.874 11.5583 6.8132 12.3287 6.69312C12.4362 7.70562 12.5 8.81062 12.5 10H7.5C7.5 8.81062 7.56375 7.70562 7.67125 6.69312ZM12.4906 10.625C12.4757 11.5209 12.4215 12.4157 12.3281 13.3069C11.5579 13.1868 10.7795 13.126 10 13.125C9.22024 13.126 8.44171 13.1868 7.67125 13.3069C7.57788 12.4157 7.52366 11.5209 7.50875 10.625H12.4906ZM12.8656 14.0394C13.7431 14.2156 14.58 14.4719 15.3594 14.8C14.4819 16.9956 13.0275 18.6137 11.3081 19.165C12.0538 18.1281 12.5781 16.2244 12.8656 14.0394ZM13.125 10C13.125 8.8525 13.0612 7.69 12.9412 6.58125C13.8662 6.39875 14.7512 6.13125 15.5756 5.78687C16.0031 7.055 16.25 8.48375 16.25 10H13.125ZM12.8656 5.96062C12.5781 3.77562 12.0544 1.87125 11.3075 0.835C13.0269 1.38625 14.4812 3.00437 15.3587 5.2C14.5553 5.53643 13.72 5.79125 12.8656 5.96062ZM12.2569 6.07125C11.5206 6.18625 10.765 6.25 10 6.25C9.235 6.25 8.47937 6.18625 7.74312 6.07125C8.1775 2.73688 9.125 0.625 10 0.625C10.875 0.625 11.8225 2.73688 12.2569 6.07125ZM7.13438 5.96062C6.27994 5.79048 5.44457 5.53568 4.64062 5.2C5.51813 3.00437 6.9725 1.38625 8.69187 0.835C7.94625 1.87187 7.42188 3.77562 7.13438 5.96062ZM7.05875 6.58125C6.9363 7.71672 6.87496 8.85795 6.875 10H3.75C3.75 8.48375 3.99688 7.055 4.42438 5.78625C5.24875 6.13125 6.13375 6.39812 7.05875 6.58125ZM6.88375 10.625C6.90187 11.5675 6.96 12.5106 7.05875 13.4194C6.13375 13.6019 5.24875 13.8694 4.42438 14.2138C4.05625 13.1213 3.82813 11.9094 3.77125 10.625H6.88375ZM3.85625 14.4619C3.32032 14.7184 2.80685 15.0195 2.32125 15.3619C1.34325 13.9651 0.767535 12.3266 0.656875 10.625H3.14687C3.20562 11.9975 3.45375 13.2938 3.85625 14.4619ZM2.69563 15.8625C3.13286 15.5542 3.59413 15.2814 4.075 15.0469C4.7025 16.6 5.60563 17.8894 6.69125 18.7612C5.12506 18.1679 3.74569 17.1672 2.69563 15.8625ZM13.3088 18.7606C14.395 17.8894 15.2975 16.5994 15.925 15.0462C16.4187 15.2862 16.8762 15.5625 17.3044 15.8619C16.2547 17.1671 14.8752 18.1679 13.3088 18.7606ZM16.875 10C16.875 8.39563 16.6075 6.88313 16.1437 5.53813C16.6937 5.27438 17.205 4.97125 17.6794 4.63812C18.7836 6.20798 19.3758 8.08068 19.375 10H16.875ZM17.305 4.1375C16.8769 4.43687 16.4194 4.71312 15.9256 4.95312C15.2981 3.4 14.395 2.11 13.3094 1.23875C14.8754 1.83232 16.2547 2.83299 17.305 4.1375ZM6.69125 1.23937C5.605 2.11063 4.7025 3.40063 4.075 4.95375C3.59411 4.71901 3.13284 4.44605 2.69563 4.1375C3.74555 2.83277 5.12499 1.83224 6.69125 1.23937ZM2.32125 4.63812C2.80685 4.98052 3.32032 5.28157 3.85625 5.53813C3.36796 6.97488 3.12087 8.48255 3.125 10H0.625C0.625 8.00625 1.25562 6.15937 2.32125 4.63812Z" fill="#F97316"/>
</svg>
