<svg width="16" height="17" viewBox="0 0 16 17" fill="none" xmlns="http://www.w3.org/2000/svg">
<path d="M12.25 0.396248H3.75C1.67893 0.396248 0 2.07518 0 4.14625V12.6462C0 14.7173 1.67893 16.3962 3.75 16.3962H12.25C14.3211 16.3962 16 14.7173 16 12.6462V4.14625C16 2.07518 14.3211 0.396248 12.25 0.396248Z" fill="url(#paint0_radial_42_3181)"/>
<path d="M12.25 0.396248H3.75C1.67893 0.396248 0 2.07518 0 4.14625V12.6462C0 14.7173 1.67893 16.3962 3.75 16.3962H12.25C14.3211 16.3962 16 14.7173 16 12.6462V4.14625C16 2.07518 14.3211 0.396248 12.25 0.396248Z" fill="url(#paint1_radial_42_3181)"/>
<path d="M8.00056 2.14625C6.30319 2.14625 6.09013 2.15369 5.4235 2.184C4.75813 2.2145 4.30394 2.31981 3.90656 2.47437C3.49544 2.634 3.14675 2.84756 2.79938 3.19506C2.45169 3.5425 2.23813 3.89119 2.078 4.30212C1.923 4.69962 1.81756 5.154 1.78762 5.81906C1.75781 6.48575 1.75 6.69887 1.75 8.39631C1.75 10.0937 1.7575 10.3061 1.78775 10.9727C1.81838 11.6381 1.92369 12.0923 2.07812 12.4897C2.23787 12.9008 2.45144 13.2495 2.79894 13.5969C3.14625 13.9446 3.49494 14.1586 3.90575 14.3182C4.30344 14.4728 4.75769 14.5781 5.42294 14.6086C6.08962 14.6389 6.3025 14.6464 7.99981 14.6464C9.69738 14.6464 9.90975 14.6389 10.5764 14.6086C11.2417 14.5781 11.6964 14.4728 12.0941 14.3182C12.5051 14.1586 12.8532 13.9446 13.2005 13.5969C13.5482 13.2495 13.7617 12.9008 13.9219 12.4899C14.0755 12.0923 14.181 11.638 14.2122 10.9729C14.2422 10.3062 14.25 10.0937 14.25 8.39631C14.25 6.69887 14.2422 6.48587 14.2122 5.81919C14.181 5.15381 14.0755 4.69969 13.9219 4.30231C13.7617 3.89119 13.5482 3.5425 13.2005 3.19506C12.8529 2.84744 12.5052 2.63387 12.0938 2.47444C11.6953 2.31981 11.2409 2.21444 10.5755 2.184C9.90881 2.15369 9.69656 2.14625 7.99862 2.14625H8.00056ZM7.43988 3.27256C7.60631 3.27231 7.792 3.27256 8.00056 3.27256C9.66938 3.27256 9.86712 3.27856 10.5261 3.3085C11.1355 3.33637 11.4663 3.43819 11.6866 3.52375C11.9783 3.637 12.1862 3.77244 12.4048 3.99125C12.6236 4.21 12.7589 4.41831 12.8725 4.71C12.9581 4.93 13.06 5.26075 13.0878 5.87012C13.1177 6.529 13.1242 6.72687 13.1242 8.39487C13.1242 10.0629 13.1177 10.2608 13.0878 10.9196C13.0599 11.529 12.9581 11.8597 12.8725 12.0798C12.7593 12.3715 12.6236 12.5792 12.4048 12.7978C12.1861 13.0166 11.9784 13.1519 11.6866 13.2652C11.4665 13.3512 11.1355 13.4527 10.5261 13.4806C9.86725 13.5106 9.66938 13.5171 8.00056 13.5171C6.33169 13.5171 6.13387 13.5106 5.47506 13.4806C4.86569 13.4525 4.53494 13.3507 4.31444 13.2651C4.02281 13.1518 3.81444 13.0164 3.59569 12.7977C3.37694 12.5789 3.24156 12.3711 3.128 12.0793C3.04244 11.8592 2.9405 11.5285 2.91275 10.9191C2.88281 10.2602 2.87681 10.0624 2.87681 8.39331C2.87681 6.72425 2.88281 6.52744 2.91275 5.86856C2.94062 5.25919 3.04244 4.92844 3.128 4.70812C3.24131 4.41644 3.37694 4.20812 3.59575 3.98937C3.81456 3.77062 4.02281 3.63519 4.3145 3.52169C4.53481 3.43575 4.86569 3.33419 5.47506 3.30619C6.05162 3.28012 6.27506 3.27231 7.43988 3.271V3.27256ZM11.3368 4.31031C10.9228 4.31031 10.5868 4.64594 10.5868 5.06006C10.5868 5.47412 10.9228 5.81006 11.3368 5.81006C11.7509 5.81006 12.0868 5.47412 12.0868 5.06006C12.0868 4.646 11.7509 4.31006 11.3368 4.31006V4.31031ZM8.00056 5.18662C6.22806 5.18662 4.79094 6.62375 4.79094 8.39631C4.79094 10.1689 6.22806 11.6053 8.00056 11.6053C9.77312 11.6053 11.2098 10.1689 11.2098 8.39631C11.2098 6.62381 9.773 5.18662 8.00044 5.18662H8.00056ZM8.00056 6.31294C9.15112 6.31294 10.0839 7.24562 10.0839 8.39631C10.0839 9.54687 9.15112 10.4797 8.00056 10.4797C6.85 10.4797 5.91725 9.54687 5.91725 8.39631C5.91725 7.24562 6.84994 6.31294 8.00056 6.31294Z" fill="white"/>
<defs>
<radialGradient id="paint0_radial_42_3181" cx="0" cy="0" r="1" gradientUnits="userSpaceOnUse" gradientTransform="translate(4.25 17.6286) rotate(-90) scale(15.8572 14.7484)">
<stop stop-color="#FFDD55"/>
<stop offset="0.1" stop-color="#FFDD55"/>
<stop offset="0.5" stop-color="#FF543E"/>
<stop offset="1" stop-color="#C837AB"/>
</radialGradient>
<radialGradient id="paint1_radial_42_3181" cx="0" cy="0" r="1" gradientUnits="userSpaceOnUse" gradientTransform="translate(-2.68006 1.54881) rotate(78.681) scale(7.08825 29.218)">
<stop stop-color="#3771C8"/>
<stop offset="0.128" stop-color="#3771C8"/>
<stop offset="1" stop-color="#6600FF" stop-opacity="0"/>
</radialGradient>
</defs>
</svg>
