<svg width="16" height="16" viewBox="0 0 16 16" fill="none" xmlns="http://www.w3.org/2000/svg">
<path d="M14.125 5.77501e-05H1.125C0.830039 -0.0029441 0.545934 0.111188 0.335024 0.317411C0.124114 0.523635 0.00362641 0.805104 0 1.10006V14.1526C0.00428223 14.4471 0.125058 14.7279 0.335896 14.9336C0.546735 15.1393 0.830466 15.2531 1.125 15.2501H14.125C14.42 15.2524 14.7039 15.1379 14.9147 14.9315C15.1255 14.7252 15.246 14.4438 15.25 14.1488V1.09631C15.2447 0.802219 15.1236 0.522091 14.913 0.316815C14.7023 0.111538 14.4191 -0.00229496 14.125 5.77501e-05Z" fill="#0076B2"/>
<path d="M2.25752 5.71631H4.52126V13.0001H2.25752V5.71631ZM3.39002 2.09131C3.64966 2.09131 3.90346 2.16832 4.11933 2.31259C4.3352 2.45687 4.50342 2.66192 4.60273 2.90183C4.70203 3.14173 4.72795 3.40569 4.6772 3.66032C4.62646 3.91496 4.50133 4.14882 4.31765 4.33233C4.13397 4.51583 3.89999 4.64074 3.6453 4.69124C3.39062 4.74174 3.12668 4.71557 2.88688 4.61604C2.64707 4.51651 2.44217 4.34809 2.2981 4.13208C2.15403 3.91608 2.07727 3.6622 2.07752 3.40256C2.07785 3.05468 2.21627 2.72116 2.46238 2.47529C2.70848 2.22942 3.04214 2.09131 3.39002 2.09131ZM5.94126 5.71631H8.11127V6.71631H8.14126C8.44376 6.14381 9.18127 5.54006 10.2825 5.54006C12.575 5.53506 13 7.04381 13 9.00006V13.0001H10.7363V9.45631C10.7363 8.61256 10.7213 7.52631 9.56002 7.52631C8.39877 7.52631 8.20127 8.44631 8.20127 9.40131V13.0001H5.94126V5.71631Z" fill="white"/>
</svg>
