<svg width="17" height="19" viewBox="0 0 17 19" fill="none" xmlns="http://www.w3.org/2000/svg">
<path d="M3.5 4.825C1.96583 6.2258 1 8.0839 1 10.35C1 11.3546 1.19399 12.3494 1.5709 13.2775C1.94781 14.2057 2.50026 15.049 3.1967 15.7594C3.89314 16.4697 4.71993 17.0332 5.62987 17.4177C6.53982 17.8021 7.51509 18 8.5 18C9.48491 18 10.4602 17.8021 11.3701 17.4177C12.2801 17.0332 13.1069 16.4697 13.8033 15.7594C14.4997 15.049 15.0522 14.2057 15.4291 13.2775C15.806 12.3494 16 11.3546 16 10.35C16 8.0839 15.0342 6.2258 13.5 4.825M8.5 1V8.65M8.5 1C7.91667 1 6.82667 2.6949 6.41667 3.125M8.5 1C9.08333 1 10.1733 2.6949 10.5833 3.125" stroke="white" stroke-width="1.5" stroke-linecap="round" stroke-linejoin="round"/>
</svg>
