<svg width="4" height="21" viewBox="0 0 4 21" fill="none" xmlns="http://www.w3.org/2000/svg">
<path d="M1.875 2.89001e-09C2.24238 -1.95901e-05 2.60167 0.0995849 2.90825 0.286442C3.21483 0.473299 3.45518 0.739176 3.59946 1.05105C3.74374 1.36292 3.78559 1.70705 3.7198 2.04068C3.65402 2.37432 3.4835 2.68277 3.22944 2.92772C2.97537 3.17267 2.64894 3.34332 2.2907 3.41849C1.93246 3.49365 1.55819 3.47002 1.21438 3.35051C0.870563 3.23101 0.572357 3.02091 0.356797 2.7463C0.141236 2.4717 0.0178193 2.14468 0.00187504 1.80588L0 1.73077L0.00187504 1.65565C0.0228448 1.21007 0.229353 0.789154 0.578334 0.48069C0.927315 0.172226 1.39183 2.57714e-05 1.875 2.89001e-09Z" fill="black"/>
<path d="M1.875 8.30768C2.24238 8.30766 2.60167 8.40726 2.90825 8.59412C3.21483 8.78098 3.45518 9.04685 3.59946 9.35873C3.74374 9.6706 3.78559 10.0147 3.7198 10.3484C3.65402 10.682 3.4835 10.9904 3.22944 11.2354C2.97537 11.4803 2.64894 11.651 2.2907 11.7262C1.93246 11.8013 1.55819 11.7777 1.21438 11.6582C0.870563 11.5387 0.572357 11.3286 0.356797 11.054C0.141236 10.7794 0.0178193 10.4524 0.00187504 10.1136L0 10.0384L0.00187504 9.96333C0.0228448 9.51775 0.229353 9.09683 0.578334 8.78837C0.927315 8.4799 1.39183 8.3077 1.875 8.30768Z" fill="black"/>
<path d="M1.875 17.5385C2.24238 17.5384 2.60167 17.638 2.90825 17.8249C3.21483 18.0118 3.45518 18.2776 3.59946 18.5895C3.74374 18.9014 3.78559 19.2455 3.7198 19.5791C3.65402 19.9128 3.4835 20.2212 3.22944 20.4662C2.97537 20.7111 2.64894 20.8818 2.2907 20.9569C1.93246 21.0321 1.55819 21.0085 1.21438 20.889C0.870563 20.7695 0.572357 20.5594 0.356797 20.2848C0.141236 20.0101 0.0178193 19.6831 0.00187504 19.3443L0 19.2692L0.00187504 19.1941C0.0228448 18.7485 0.229353 18.3276 0.578334 18.0191C0.927315 17.7107 1.39183 17.5385 1.875 17.5385Z" fill="black"/>
</svg>
