<svg width="21" height="21" viewBox="0 0 21 21" fill="none" xmlns="http://www.w3.org/2000/svg">
<path d="M10.5 11.841C9.57174 11.841 8.6815 12.2098 8.02513 12.8661C7.36875 13.5225 7 14.4127 7 15.341C7 16.2693 7.36875 17.1595 8.02513 17.8159C8.6815 18.4723 9.57174 18.841 10.5 18.841C11.4283 18.841 12.3185 18.4723 12.9749 17.8159C13.6313 17.1595 14 16.2693 14 15.341C14 14.4127 13.6313 13.5225 12.9749 12.8661C12.3185 12.2098 11.4283 11.841 10.5 11.841ZM9 15.341C9 14.9432 9.15804 14.5616 9.43934 14.2803C9.72064 13.999 10.1022 13.841 10.5 13.841C10.8978 13.841 11.2794 13.999 11.5607 14.2803C11.842 14.5616 12 14.9432 12 15.341C12 15.7388 11.842 16.1204 11.5607 16.4017C11.2794 16.683 10.8978 16.841 10.5 16.841C10.1022 16.841 9.72064 16.683 9.43934 16.4017C9.15804 16.1204 9 15.7388 9 15.341Z" fill="black"/>
<path d="M16.026 4.38578L12.847 0L1.158 9.18879L0.51 9.1819V9.19174H0V21H21V9.19174H20.038L18.124 3.68221L16.026 4.38578ZM17.925 9.19174H7.897L15.366 6.68643L16.888 6.20721L17.925 9.19174ZM14.05 5.04901L6.34 7.63502L12.446 2.83497L14.05 5.04901ZM2 17.2302V12.9596C2.42218 12.8129 2.80565 12.5752 3.12231 12.2638C3.43896 11.9524 3.68077 11.5751 3.83 11.1598H17.17C17.3191 11.5753 17.5609 11.9527 17.8775 12.2643C18.1942 12.5759 18.5777 12.8138 19 12.9605V17.2312C18.5777 17.3779 18.1942 17.6158 17.8775 17.9274C17.5609 18.239 17.3191 18.6164 17.17 19.032H3.832C3.68218 18.6164 3.43996 18.239 3.12302 17.9273C2.80607 17.6156 2.4224 17.3774 2 17.2302Z" fill="black"/>
</svg>
