<svg width="19" height="19" viewBox="0 0 19 19" fill="none" xmlns="http://www.w3.org/2000/svg">
<path fill-rule="evenodd" clip-rule="evenodd" d="M16.6708 0.0272459C16.9573 -0.0205279 17.2507 -0.00534176 17.5307 0.0717487C17.8107 0.148839 18.0706 0.285984 18.2922 0.47365C18.5139 0.661316 18.692 0.895001 18.8142 1.15846C18.9364 1.42192 18.9997 1.70883 18.9998 1.99925V13.8192C18.9996 14.6997 18.7089 15.5556 18.1728 16.254C17.6366 16.9525 16.885 17.4545 16.0345 17.6822C15.1839 17.91 14.282 17.8507 13.4686 17.5137C12.6552 17.1766 11.9757 16.5805 11.5355 15.818C11.0954 15.0554 10.9191 14.1689 11.0341 13.2959C11.1491 12.423 11.5489 11.6123 12.1716 10.9898C12.7942 10.3672 13.6049 9.96746 14.4779 9.85255C15.3508 9.73765 16.2373 9.914 16.9998 10.3542V5.99925L6.99985 7.66625V14.8192C6.99985 14.8792 6.99485 14.9372 6.98485 14.9932C7.05664 15.7622 6.87207 16.5334 6.4599 17.1865C6.04772 17.8396 5.43109 18.3381 4.70607 18.6042C3.98105 18.8704 3.18836 18.8892 2.45151 18.6579C1.71466 18.4265 1.07502 17.9579 0.632263 17.3251C0.189501 16.6923 -0.0315228 15.9308 0.00362873 15.1593C0.0387802 14.3878 0.328132 13.6495 0.826603 13.0596C1.32507 12.4697 2.00467 12.0612 2.75951 11.8978C3.51435 11.7344 4.30203 11.8253 4.99985 12.1562V3.66625C4.99979 3.19281 5.16768 2.7347 5.47366 2.37342C5.77964 2.01215 6.20386 1.77113 6.67085 1.69325L16.6708 0.0272459ZM6.99985 5.63925L16.9998 3.97225V1.99925L6.99985 3.66625V5.63925Z" fill="black"/>
</svg>
