<svg width="20" height="17" viewBox="0 0 20 17" fill="none" xmlns="http://www.w3.org/2000/svg">
<path d="M10 0C9.62517 -5.54107e-09 9.25401 0.0732422 8.90771 0.215545C8.56141 0.357848 8.24676 0.566424 7.98172 0.829365C7.71667 1.09231 7.50642 1.40446 7.36298 1.74801C7.21954 2.09156 7.14571 2.45977 7.14571 2.83163C7.14571 3.20348 7.21954 3.5717 7.36298 3.91525C7.50642 4.2588 7.71667 4.57095 7.98172 4.83389C8.24676 5.09684 8.56141 5.30541 8.90771 5.44771C9.25401 5.59002 9.62517 5.66326 10 5.66326C10.757 5.66326 11.483 5.36493 12.0183 4.83389C12.5536 4.30286 12.8543 3.58262 12.8543 2.83163C12.8543 2.08063 12.5536 1.3604 12.0183 0.829365C11.483 0.298331 10.757 0 10 0ZM16.4286 1.4144C15.8603 1.4144 15.3152 1.63837 14.9133 2.03704C14.5115 2.43572 14.2857 2.97644 14.2857 3.54025C14.2857 4.10406 14.5115 4.64477 14.9133 5.04345C15.3152 5.44212 15.8603 5.66609 16.4286 5.66609C16.9969 5.66609 17.5419 5.44212 17.9438 5.04345C18.3457 4.64477 18.5714 4.10406 18.5714 3.54025C18.5714 2.97644 18.3457 2.43572 17.9438 2.03704C17.5419 1.63837 16.9969 1.4144 16.4286 1.4144ZM3.57143 1.4144C3.00311 1.4144 2.45806 1.63837 2.0562 2.03704C1.65434 2.43572 1.42857 2.97644 1.42857 3.54025C1.42857 4.10406 1.65434 4.64477 2.0562 5.04345C2.45806 5.44212 3.00311 5.66609 3.57143 5.66609C4.13975 5.66609 4.68479 5.44212 5.08666 5.04345C5.48852 4.64477 5.71429 4.10406 5.71429 3.54025C5.71429 2.97644 5.48852 2.43572 5.08666 2.03704C4.68479 1.63837 4.13975 1.4144 3.57143 1.4144ZM5.71429 8.49064C5.71693 8.11649 5.8686 7.75855 6.13622 7.49491C6.40385 7.23127 6.7657 7.08332 7.14286 7.08333H12.8571C13.236 7.08333 13.5994 7.23264 13.8673 7.49842C14.1352 7.76421 14.2857 8.12468 14.2857 8.50056V12.7523C14.2861 13.1983 14.2157 13.6417 14.0771 14.066C13.7608 15.0279 13.1092 15.8464 12.2393 16.3746C11.3694 16.9027 10.3382 17.1059 9.3309 16.9476C8.32358 16.7894 7.40612 16.2801 6.74326 15.5111C6.0804 14.7422 5.71558 13.764 5.71429 12.7523V8.49064ZM4.28571 8.50056C4.28571 7.98327 4.42429 7.49999 4.66857 7.08333H1.42857C1.04969 7.08333 0.686328 7.23264 0.418419 7.49842C0.15051 7.76421 1.97733e-07 8.12468 1.97733e-07 8.50056V12.0436C-0.000194354 12.6237 0.14318 13.195 0.417533 13.7072C0.691885 14.2195 1.08882 14.6571 1.57349 14.9816C2.05815 15.3061 2.61572 15.5076 3.19722 15.5684C3.77873 15.6292 4.36638 15.5474 4.90857 15.3302C4.49828 14.5314 4.28481 13.6474 4.28571 12.7508V8.50056ZM15.7143 8.50056V12.7523C15.7143 13.6805 15.49 14.5564 15.0914 15.3302C15.6336 15.5474 16.2213 15.6292 16.8028 15.5684C17.3843 15.5076 17.9418 15.3061 18.4265 14.9816C18.9112 14.6571 19.3081 14.2195 19.5825 13.7072C19.8568 13.195 20.0002 12.6237 20 12.0436V8.50056C20 8.12468 19.8495 7.76421 19.5816 7.49842C19.3137 7.23264 18.9503 7.08333 18.5714 7.08333H15.3314C15.5743 7.49999 15.7143 7.98327 15.7143 8.50056Z" fill="black"/>
</svg>
