<svg width="16" height="22" viewBox="0 0 16 22" fill="none" xmlns="http://www.w3.org/2000/svg">
<path fill-rule="evenodd" clip-rule="evenodd" d="M8 2.01705C7.46957 2.01705 6.96086 2.22956 6.58579 2.60783C6.21071 2.98611 6 3.49915 6 4.03411H10C10 3.49915 9.78929 2.98611 9.41421 2.60783C9.03914 2.22956 8.53043 2.01705 8 2.01705ZM5.354 1.00853C6.059 0.381223 6.986 0 8 0C9.014 0 9.94 0.381223 10.646 1.00853H14C14.5304 1.00853 15.0391 1.22104 15.4142 1.59931C15.7893 1.97758 16 2.49062 16 3.02558V18.1535C16 18.6884 15.7893 19.2015 15.4142 19.5798C15.0391 19.958 14.5304 20.1705 14 20.1705H2C1.46957 20.1705 0.960859 19.958 0.585786 19.5798C0.210714 19.2015 0 18.6884 0 18.1535V3.02558C0 2.49062 0.210714 1.97758 0.585786 1.59931C0.960859 1.22104 1.46957 1.00853 2 1.00853H5.354ZM4.126 3.02558H2V18.1535H14V3.02558H11.874C11.9567 3.34898 11.9987 3.68516 12 4.03411V5.04263C12 5.31011 11.8946 5.56663 11.7071 5.75577C11.5196 5.9449 11.2652 6.05116 11 6.05116H5C4.73478 6.05116 4.48043 5.9449 4.29289 5.75577C4.10536 5.56663 4 5.31011 4 5.04263V4.03411C4.00133 3.68516 4.04333 3.34898 4.126 3.02558ZM4 9.07674C4 8.80926 4.10536 8.55274 4.29289 8.3636C4.48043 8.17447 4.73478 8.06821 5 8.06821H11C11.2652 8.06821 11.5196 8.17447 11.7071 8.3636C11.8946 8.55274 12 8.80926 12 9.07674C12 9.34422 11.8946 9.60074 11.7071 9.78988C11.5196 9.97901 11.2652 10.0853 11 10.0853H5C4.73478 10.0853 4.48043 9.97901 4.29289 9.78988C4.10536 9.60074 4 9.34422 4 9.07674ZM4 13.1108C4 12.8434 4.10536 12.5868 4.29289 12.3977C4.48043 12.2086 4.73478 12.1023 5 12.1023H8C8.26522 12.1023 8.51957 12.2086 8.70711 12.3977C8.89464 12.5868 9 12.8434 9 13.1108C9 13.3783 8.89464 13.6348 8.70711 13.824C8.51957 14.0131 8.26522 14.1194 8 14.1194H5C4.73478 14.1194 4.48043 14.0131 4.29289 13.824C4.10536 13.6348 4 13.3783 4 13.1108Z" fill="black"/>
</svg>
