<svg width="20" height="20" viewBox="0 0 20 20" fill="none" xmlns="http://www.w3.org/2000/svg">
<path fill-rule="evenodd" clip-rule="evenodd" d="M0 10C0 4.48372 4.48372 0 10 0C15.5163 0 20 4.48372 20 10C20 15.5163 15.5163 20 10 20C4.48372 20 0 15.5163 0 10ZM1.39535 10C1.39535 14.7442 5.25581 18.6047 10 18.6047C14.7442 18.6047 18.6047 14.7442 18.6047 10C18.6047 5.25581 14.7442 1.39535 10 1.39535C5.25581 1.39535 1.39535 5.25581 1.39535 10ZM13.8791 4.19535C15.0233 4.96744 15.9163 6.05581 16.4465 7.33023H16.4372C16.9674 8.60465 17.107 10.0093 16.8372 11.3581C16.5674 12.7163 15.907 13.9535 14.9302 14.9302C13.9573 15.9092 12.7148 16.5762 11.3612 16.8462C10.0077 17.1163 8.60438 16.9771 7.33023 16.4465C6.05428 15.9197 4.9633 15.0262 4.19535 13.8791C3.43251 12.7291 3.02489 11.38 3.02326 10H10V3.02326C11.386 3.02326 12.7349 3.43256 13.8791 4.19535Z" fill="#EA580C"/>
</svg>
