<svg width="20" height="18" viewBox="0 0 20 18" fill="none" xmlns="http://www.w3.org/2000/svg">
<path d="M12 0C12.7956 0 13.5587 0.316071 14.1213 0.87868C14.6839 1.44129 15 2.20435 15 3H18C18.5304 3 19.0391 3.21071 19.4142 3.58579C19.7893 3.96086 20 4.46957 20 5V16C20 16.5304 19.7893 17.0391 19.4142 17.4142C19.0391 17.7893 18.5304 18 18 18H2C1.46957 18 0.960859 17.7893 0.585786 17.4142C0.210714 17.0391 0 16.5304 0 16V5C0 4.46957 0.210714 3.96086 0.585786 3.58579C0.960859 3.21071 1.46957 3 2 3H5C5 2.20435 5.31607 1.44129 5.87868 0.87868C6.44129 0.316071 7.20435 0 8 0H12ZM9 9H2V16H18V9H11V10C10.9997 10.2549 10.9021 10.5 10.7272 10.6854C10.5522 10.8707 10.313 10.9822 10.0586 10.9972C9.80416 11.0121 9.55362 10.9293 9.35817 10.7657C9.16271 10.6021 9.0371 10.3701 9.007 10.117L9 10V9ZM18 5H2V7H18V5ZM12 2H8C7.75507 2.00003 7.51866 2.08996 7.33563 2.25272C7.15259 2.41547 7.03566 2.63975 7.007 2.883L7 3H13C13 2.75507 12.91 2.51866 12.7473 2.33563C12.5845 2.15259 12.3603 2.03566 12.117 2.007L12 2Z" fill="black"/>
</svg>
