<svg width="15" height="18" viewBox="0 0 15 18" fill="none" xmlns="http://www.w3.org/2000/svg">
<path d="M11.0302 6.74587C12.149 7.51475 13.5197 7.96715 15 7.96715V5.22867C14.7198 5.22878 14.4404 5.20066 14.1663 5.14478V7.30036C12.6861 7.30036 11.3156 6.84802 10.1965 6.0792V11.6677C10.1965 14.4634 7.83905 16.7295 4.93121 16.7295C3.84622 16.7295 2.83772 16.4142 2 15.8734C2.95614 16.8132 4.28954 17.3962 5.76467 17.3962C8.67276 17.3962 11.0303 15.1301 11.0303 12.3343V6.74587H11.0302ZM12.0587 3.98308C11.4869 3.38255 11.1114 2.60647 11.0302 1.74845V1.39625H10.2401C10.439 2.48674 11.1174 3.41839 12.0587 3.98308ZM3.83921 13.7281C3.51972 13.3255 3.34703 12.8328 3.34784 12.3263C3.34784 11.0477 4.42612 10.011 5.75646 10.011C6.00435 10.0108 6.25078 10.0474 6.48708 10.1194V7.31972C6.21094 7.28336 5.93227 7.26787 5.65373 7.27357V9.45271C5.41731 9.38067 5.17076 9.34409 4.92276 9.34428C3.59247 9.34428 2.51425 10.3809 2.51425 11.6597C2.51425 12.5639 3.05318 13.3467 3.83921 13.7281Z" fill="#FF004F"/>
<path d="M10.2239 5.97732C11.2885 6.72943 12.592 7.17193 14 7.17193V5.06323C13.214 4.89769 12.5183 4.49165 11.9952 3.92683C11.0998 3.37436 10.4546 2.46297 10.2654 1.39625H8.29154V12.0964C8.28704 13.3438 7.26314 14.3538 6.00045 14.3538C5.25643 14.3538 4.59537 14.0032 4.17675 13.4599C3.4292 13.0869 2.91651 12.321 2.91651 11.4366C2.91651 10.1857 3.94212 9.17153 5.20749 9.17153C5.44993 9.17153 5.6836 9.20884 5.90279 9.2776V7.14584C3.18539 7.20136 1 9.39658 1 12.0964C1 13.4442 1.5442 14.666 2.42747 15.5587C3.22431 16.0877 4.18354 16.3962 5.21564 16.3962C7.98164 16.3962 10.224 14.1792 10.224 11.4444L10.2239 5.97732Z" fill="black"/>
<path d="M14 4.76942V4.19223C13.2806 4.19326 12.5754 3.99457 11.9651 3.61886C12.5054 4.20222 13.2168 4.60451 14 4.76954M10.2093 1.05653C10.191 0.953328 10.177 0.849435 10.1672 0.745109V0.396248H7.40081V11.2305C7.39642 12.4934 6.35715 13.5161 5.07545 13.5161C4.7121 13.5166 4.35371 13.4328 4.02925 13.2714C4.45415 13.8214 5.12513 14.1763 5.88032 14.1763C7.1619 14.1763 8.20128 13.1538 8.2058 11.8907V1.05659L10.2093 1.05653ZM5.78137 6.87811V6.26354C5.5502 6.2324 5.31715 6.2168 5.08384 6.21686C2.27603 6.21686 0 8.4616 0 11.2305C0 12.9664 0.894508 14.4963 2.25382 15.3962C1.35729 14.4924 0.804924 13.2553 0.804924 11.8907C0.804924 9.15709 3.02306 6.93433 5.78137 6.87811Z" fill="#00F2EA"/>
</svg>
