<svg width="18" height="17" viewBox="0 0 18 17" fill="none" xmlns="http://www.w3.org/2000/svg">
<path d="M12.3 7.25L15.825 3.7L15.125 3L12.3 5.825L10.875 4.4L10.175 5.125L12.3 7.25ZM0 17V15H12V17H0ZM13 10C11.6167 10 10.4377 9.51233 9.463 8.537C8.48833 7.56167 8.00067 6.38267 8 5C7.99933 3.61733 8.487 2.43833 9.463 1.463C10.439 0.487666 11.618 0 13 0C14.382 0 15.5613 0.487666 16.538 1.463C17.5147 2.43833 18.002 3.61733 18 5C17.998 6.38267 17.5103 7.562 16.537 8.538C15.5637 9.514 14.3847 10.0013 13 10ZM0 9V7H6.3C6.41667 7.36667 6.55 7.71667 6.7 8.05C6.85 8.38333 7.03333 8.7 7.25 9H0ZM0 13V11H9.4C9.78333 11.2333 10.1917 11.4293 10.625 11.588C11.0583 11.7467 11.5167 11.859 12 11.925V13H0Z" fill="black"/>
</svg>
