<svg width="18" height="14" viewBox="0 0 18 14" fill="none" xmlns="http://www.w3.org/2000/svg">
<path d="M18 1.64706C17.3375 1.93529 16.6233 2.12471 15.8834 2.21529C16.6405 1.77882 17.2256 1.08706 17.501 0.255294C16.7868 0.667059 15.9952 0.955294 15.1606 1.12C14.4809 0.411765 13.5258 0 12.4417 0C10.4197 0 8.76769 1.58118 8.76769 3.53294C8.76769 3.81294 8.8021 4.08471 8.86233 4.34C5.79924 4.19177 3.0717 2.78353 1.25621 0.650588C0.937859 1.16941 0.75717 1.77882 0.75717 2.42118C0.75717 3.64824 1.40249 4.73529 2.40057 5.35294C1.78967 5.35294 1.2218 5.18824 0.722754 4.94118V4.96588C0.722754 6.67882 1.99618 8.11176 3.6826 8.43294C3.14126 8.57536 2.57269 8.5951 2.02199 8.49059C2.25568 9.19263 2.71337 9.80692 3.3307 10.2471C3.94804 10.6873 4.69398 10.9313 5.46367 10.9447C4.15899 11.9334 2.54169 12.4677 0.877629 12.46C0.585086 12.46 0.292543 12.4435 0 12.4106C1.6348 13.4153 3.57935 14 5.66157 14C12.4417 14 16.1673 8.61412 16.1673 3.94471C16.1673 3.78824 16.1673 3.64 16.1587 3.48353C16.8815 2.98941 17.501 2.36353 18 1.64706Z" fill="black"/>
</svg>
