<svg width="18" height="18" viewBox="0 0 18 18" fill="none" xmlns="http://www.w3.org/2000/svg">
<path fill-rule="evenodd" clip-rule="evenodd" d="M4.5 5.14286C5.18199 5.14286 5.83604 4.87194 6.31828 4.3897C6.80051 3.90747 7.07143 3.25341 7.07143 2.57143C7.07143 1.88944 6.80051 1.23539 6.31828 0.753154C5.83604 0.270918 5.18199 0 4.5 0C3.81802 0 3.16396 0.270918 2.68173 0.753154C2.19949 1.23539 1.92857 1.88944 1.92857 2.57143C1.92857 3.25341 2.19949 3.90747 2.68173 4.3897C3.16396 4.87194 3.81802 5.14286 4.5 5.14286ZM7.12929 12.8571V12.8186C7.12929 11.5457 7.83257 10.4374 8.87143 9.85886C8.61025 8.78982 7.96639 7.85354 7.06161 7.2271C6.15683 6.60065 5.05386 6.32747 3.96129 6.45921C2.86873 6.59095 1.86231 7.11849 1.13237 7.94204C0.402431 8.7656 -0.000420577 9.82809 3.29494e-07 10.9286V12.2143C3.29494e-07 12.3848 0.0677297 12.5483 0.188289 12.6689C0.308848 12.7894 0.472361 12.8571 0.642857 12.8571H1.92857L2.50071 17.4369C2.52014 17.5923 2.59566 17.7353 2.71309 17.839C2.83052 17.9427 2.98177 18 3.13843 18H5.86286C6.01952 18 6.17077 17.9427 6.2882 17.839C6.40562 17.7353 6.48115 17.5923 6.50057 17.4369L7.07143 12.8571H7.12929ZM12.7633 9.88329C12.678 9.88329 12.5963 9.91715 12.536 9.97743C12.4757 10.0377 12.4419 10.1195 12.4419 10.2047V11.0417H14.2586V10.206C14.2586 10.1208 14.2247 10.039 14.1644 9.97872C14.1041 9.91844 14.0224 9.88457 13.9371 9.88457L12.7633 9.88329ZM10.5133 10.2047V11.0417C9.53229 11.0417 8.73643 11.8389 8.73643 12.8199V16.2231C8.73643 17.2041 9.53229 18 10.5133 18H16.1859C17.1669 18 17.9627 17.2041 17.9627 16.2231V12.8186C17.9627 11.8376 17.1681 11.0417 16.1871 11.0417V10.206C16.1871 9.60926 15.9501 9.03697 15.5281 8.61501C15.1062 8.19305 14.5339 7.956 13.9371 7.956H12.7633C12.1665 7.956 11.5943 8.19305 11.1723 8.61501C10.7503 9.03697 10.5133 9.60926 10.5133 10.206V10.2047Z" fill="black"/>
</svg>
