<svg width="18" height="20" viewBox="0 0 18 20" fill="none" xmlns="http://www.w3.org/2000/svg">
<path d="M11.5449 3.51948C12.0749 3.11419 12.7436 2.93503 13.4052 3.02113C13.6917 3.05999 13.9511 3.16005 14.2095 3.28536C14.4563 3.40679 14.7438 3.57291 15.0877 3.77108L15.1294 3.79537C15.4724 3.99257 15.7609 4.15966 15.9891 4.31315C16.2271 4.47247 16.4447 4.64635 16.6206 4.87659C17.0276 5.40602 17.2073 6.07437 17.1199 6.73593C17.0756 7.01664 16.9861 7.2883 16.8547 7.54028C16.7342 7.78703 16.5671 8.07457 16.369 8.41749L11.3895 17.0342C11.0748 17.6059 10.5997 18.0729 10.0227 18.3777L8.21492 19.3802C7.89435 19.558 7.61264 19.7144 7.37367 19.8193C7.13082 19.9262 6.82968 20.0291 6.49357 19.9922C6.27124 19.9674 6.05645 19.8968 5.86269 19.785C5.66894 19.6731 5.50041 19.5224 5.3677 19.3423C5.16662 19.0703 5.10542 18.7575 5.07628 18.4933C5.05051 18.1786 5.03755 17.8629 5.03742 17.5471L5.00245 15.4808C4.97745 14.829 5.1443 14.1842 5.48233 13.6264L10.4628 5.00967C10.66 4.66675 10.827 4.37823 10.9805 4.14995C11.1408 3.91194 11.3147 3.69531 11.544 3.51851M13.2138 4.46469C12.9351 4.42882 12.6534 4.50421 12.4299 4.67452C12.3784 4.71435 12.3065 4.78624 12.188 4.96304C12.0496 5.17693 11.9178 5.39496 11.7926 5.61682L11.814 5.6246C12.187 5.77031 12.7446 6.02872 13.5431 6.48918C14.3309 6.94381 14.8244 7.33628 15.1324 7.64228C15.3247 7.31005 15.4549 7.08273 15.5452 6.89816C15.6385 6.70678 15.6657 6.60964 15.6744 6.54455C15.7095 6.26677 15.6341 5.98631 15.4646 5.76351C15.4248 5.71105 15.3529 5.64014 15.1761 5.52065C14.9153 5.35409 14.6497 5.19535 14.3795 5.04464C14.0104 4.83093 13.7646 4.69007 13.5674 4.59389C13.376 4.50064 13.2789 4.47344 13.2138 4.46469ZM14.2785 8.85561L14.2795 8.85853L14.2814 8.86338L14.2843 8.87115L14.2911 8.88476L14.2989 8.9003L14.2969 8.89738L14.2785 8.85561ZM14.3513 8.99356C14.3291 8.95987 14.309 8.92483 14.2911 8.88864C14.2423 8.8206 14.1877 8.7569 14.1279 8.69824C13.9336 8.50104 13.5451 8.17366 12.8146 7.75108C12.0646 7.31879 11.5731 7.09536 11.2836 6.9817C11.2071 6.95173 11.1297 6.92419 11.0514 6.89913L6.74322 14.3549C6.53776 14.6836 6.43807 15.0675 6.45763 15.4546L6.4926 17.4888C6.4994 17.8968 6.50426 18.1513 6.52368 18.3349C6.5334 18.4263 6.54505 18.4729 6.55088 18.4904C6.57365 18.5152 6.60348 18.5325 6.63637 18.5399C6.68764 18.5259 6.73767 18.5077 6.78597 18.4855C6.95499 18.4107 7.17842 18.2873 7.53395 18.0901L9.31553 17.1022C9.66108 16.926 9.94422 16.6479 10.1267 16.3056L14.3513 8.99356ZM12.426 8.42332C12.5089 8.4712 12.5815 8.53495 12.6397 8.61091C12.698 8.68687 12.7407 8.77356 12.7654 8.86603C12.7901 8.9585 12.7964 9.05494 12.7838 9.14983C12.7712 9.24472 12.7401 9.3362 12.6922 9.41905L9.37284 15.1632C9.32535 15.2467 9.26181 15.32 9.18587 15.3789C9.10994 15.4378 9.02311 15.481 8.93038 15.5062C8.83766 15.5314 8.74087 15.538 8.64558 15.5256C8.5503 15.5132 8.45841 15.4821 8.3752 15.434C8.29199 15.386 8.21911 15.322 8.16075 15.2456C8.10238 15.1693 8.05969 15.0822 8.03513 14.9893C8.01057 14.8964 8.00463 14.7996 8.01765 14.7044C8.03066 14.6092 8.06238 14.5175 8.11098 14.4346L11.4313 8.6895C11.528 8.52237 11.687 8.40047 11.8736 8.35056C12.0601 8.30065 12.2588 8.32682 12.426 8.42332Z" fill="black"/>
<path opacity="0.5" d="M6.07134 16.9999C6.47584 16.9999 6.87025 17.1262 7.19955 17.3611C7.52885 17.596 7.77662 17.9279 7.90828 18.3104L7.748 18.3988C7.55242 18.5082 7.38178 18.6015 7.23606 18.6785C7.26844 18.7608 7.28496 18.8489 7.28561 18.9428C7.28561 19.136 7.20885 19.3213 7.07222 19.4579C6.93558 19.5946 6.75027 19.6713 6.55704 19.6713H0.728561C0.535334 19.6713 0.350022 19.5946 0.21339 19.4579C0.0767587 19.3213 0 19.136 0 18.9428C0 18.7495 0.0767587 18.5642 0.21339 18.4276C0.350022 18.2909 0.535334 18.2142 0.728561 18.2142H5.67694C5.63712 17.9762 5.63129 17.6459 5.62352 17.1738L5.62157 17.0523C5.76894 17.0174 5.91988 16.9998 6.07134 16.9999Z" fill="black"/>
</svg>
