<svg width="17" height="13" viewBox="0 0 17 13" fill="none" xmlns="http://www.w3.org/2000/svg">
<path d="M16.6246 2.26791C16.527 1.90615 16.3368 1.57634 16.0729 1.31133C15.8089 1.04632 15.4804 0.855355 15.1201 0.757448C13.8008 0.396248 8.49138 0.396248 8.49138 0.396248C8.49138 0.396248 3.18167 0.407181 1.86244 0.768381C1.50209 0.866295 1.17357 1.05727 0.909608 1.32229C0.645644 1.58732 0.455441 1.91714 0.357942 2.27891C-0.0410927 4.63211 -0.195886 8.21785 0.368899 10.4769C0.466409 10.8387 0.656615 11.1685 0.920579 11.4335C1.18454 11.6985 1.51305 11.8895 1.8734 11.9874C3.19263 12.3486 8.5022 12.3486 8.5022 12.3486C8.5022 12.3486 13.8117 12.3486 15.1309 11.9874C15.4912 11.8895 15.8198 11.6985 16.0837 11.4335C16.3477 11.1685 16.5379 10.8387 16.6354 10.4769C17.0563 8.12038 17.186 4.53685 16.6246 2.26791Z" fill="#FF0000"/>
<path d="M6.80139 8.93358L11.206 6.37238L6.80139 3.81118V8.93358Z" fill="white"/>
</svg>
